<svg data-v-fde0c5aa="" xmlns="http://www.w3.org/2000/svg" viewBox="0 0 300 300" class="iconAboveSlogan"><!----><defs data-v-fde0c5aa=""><linearGradient data-v-fde0c5aa="" gradientTransform="rotate(25)" id="cb0736d6-d18b-439c-afd9-d2075bf3d184" x1="0%" y1="0%" x2="100%" y2="0%"><stop data-v-fde0c5aa="" offset="0%" stop-color="#D6413F" stop-opacity="1"></stop><stop data-v-fde0c5aa="" offset="100%" stop-color="#4285D3" stop-opacity="1"></stop></linearGradient></defs><rect data-v-fde0c5aa="" fill="url(#cb0736d6-d18b-439c-afd9-d2075bf3d184)" x="0" y="0" width="300px" height="300px" class="logo-background-square"></rect><defs data-v-fde0c5aa=""><!----></defs><g data-v-fde0c5aa="" id="da58d6bc-6489-47b3-b699-2bbc83ceb590" fill="#ffffff" transform="matrix(3.659394635220462,0,0,3.659394635220462,19.487684748887965,149.0496326538367)"><path d="M2.53 2.98L3.58 2.98L5.98 13.30L5.46 13.30L3.21 3.57L2.90 3.57L0.64 13.30L0.14 13.30ZM3.05 4.38L4.26 9.60L1.83 9.60ZM3.05 6.58L2.46 9.10L3.64 9.10ZM1.50 13.30L0.98 13.30L1.76 9.93L4.34 9.93L5.12 13.30L4.62 13.30L3.95 10.43L2.16 10.43ZM9.51 12.75L9.79 12.75L12.24 2.98L12.75 2.98L10.16 13.30L9.13 13.30L6.57 2.98L7.06 2.98ZM9.65 9.91L11.40 2.98L11.89 2.98L9.65 11.96L7.41 2.98L7.92 2.98ZM15.55 2.98L16.60 2.98L19.00 13.30L18.48 13.30L16.23 3.57L15.92 3.57L13.66 13.30L13.16 13.30ZM16.07 4.38L17.28 9.60L14.85 9.60ZM16.07 6.58L15.48 9.10L16.66 9.10ZM14.52 13.30L14 13.30L14.78 9.93L17.36 9.93L18.14 13.30L17.64 13.30L16.97 10.43L15.18 10.43ZM24.51 6.59L24.01 6.59L24.01 5.94C24.01 4.30 23.35 3.49 22.05 3.49C20.78 3.49 20.08 4.52 20.08 5.94C20.08 6.73 20.38 7.28 20.78 7.64C21.15 8.01 21.60 8.20 21.87 8.32L22.11 8.43C22.34 8.53 22.74 8.67 23.07 8.97C23.41 9.28 23.69 9.76 23.69 10.44C23.69 11.73 23.07 12.47 22.05 12.47C20.94 12.47 20.41 11.83 20.41 10.37L20.41 9.72L20.90 9.72L20.90 10.37C20.90 10.98 21.01 11.41 21.22 11.68C21.27 11.75 21.35 11.80 21.48 11.87C21.60 11.94 21.78 11.98 22.05 11.98C22.55 11.98 22.83 11.73 23.00 11.42C23.16 11.12 23.18 10.72 23.18 10.44C23.18 9.95 23.02 9.63 22.78 9.39C22.54 9.17 22.22 9.02 21.92 8.89L21.67 8.78C21.38 8.65 20.87 8.44 20.43 8.01C19.87 7.46 19.59 6.78 19.59 5.94C19.59 5.05 19.82 4.31 20.27 3.79C20.71 3.29 21.32 2.98 22.05 2.98C23.06 2.98 23.62 3.42 23.91 3.79C24.32 4.31 24.51 5.03 24.51 5.94ZM19.59 9.72L20.08 9.72L20.08 10.37C20.08 11.98 20.75 12.81 22.05 12.81C22.67 12.81 23.18 12.57 23.52 12.11C23.84 11.70 24.01 11.12 24.01 10.44C24.01 9.65 23.69 9.10 23.31 8.75C22.92 8.40 22.47 8.22 22.23 8.12L22.01 8.02C21.74 7.91 21.35 7.74 21.01 7.41C20.68 7.08 20.41 6.62 20.41 5.94C20.41 5.45 20.51 4.91 20.78 4.51C21.04 4.10 21.45 3.81 22.05 3.81C23.13 3.81 23.69 4.48 23.69 5.94L23.69 6.59L23.18 6.59L23.18 5.94C23.18 5.14 23.00 4.70 22.76 4.51C22.53 4.31 22.23 4.31 22.05 4.31C21.50 4.31 21.24 4.61 21.08 4.97C20.92 5.33 20.90 5.75 20.90 5.94C20.90 6.43 21.07 6.75 21.31 7.00C21.55 7.25 21.87 7.43 22.20 7.56L22.43 7.66C22.69 7.77 23.20 7.95 23.65 8.39C24.22 8.92 24.51 9.60 24.51 10.44C24.51 12.03 23.63 13.30 22.05 13.30C20.41 13.30 19.59 12.22 19.59 10.37ZM30.84 3.49L25.00 3.49L25.00 2.98L30.84 2.98ZM25.00 3.81L27.76 3.81L27.76 13.30L27.26 13.30L27.26 4.31L25.00 4.31ZM28.08 13.30L28.08 3.81L30.84 3.81L30.84 4.31L28.59 4.31L28.59 13.30ZM32.09 2.97L32.09 13.29L31.60 13.29L31.60 2.97ZM35.41 7.97L32.42 7.97L32.42 2.97L32.91 2.97L32.91 7.48L34.90 7.48L34.90 2.97L35.41 2.97ZM35.73 13.29L35.73 2.97L36.23 2.97L36.23 13.29ZM32.42 8.30L35.41 8.30L35.41 13.29L34.90 13.29L34.90 8.79L32.91 8.79L32.91 13.29L32.42 13.29ZM37.74 13.29L37.74 2.97L38.23 2.97L38.23 13.29ZM39.06 13.29L38.57 13.29L38.57 2.97L39.06 2.97ZM49.36 6.58L48.86 6.58L48.86 5.92C48.86 4.31 48.20 3.49 46.91 3.49C46.27 3.49 45.78 3.70 45.44 4.10C45.12 4.54 44.95 5.14 44.95 5.92L44.95 10.36C44.95 11.37 45.22 12.00 45.60 12.35C45.98 12.70 46.47 12.81 46.91 12.81C47.36 12.81 47.84 12.70 48.22 12.35C48.59 12.00 48.86 11.37 48.86 10.36L48.86 9.69L49.36 9.69L49.36 10.36C49.36 11.27 49.17 11.97 48.76 12.47C48.47 12.85 47.92 13.30 46.91 13.30C46.41 13.30 46.03 13.19 45.72 13.02C45.42 12.87 45.21 12.66 45.05 12.47C44.66 11.98 44.46 11.28 44.46 10.36L44.46 5.92C44.46 5.01 44.66 4.30 45.05 3.81C45.21 3.63 45.42 3.42 45.72 3.25C46.03 3.09 46.41 2.98 46.91 2.98C47.92 2.98 48.47 3.43 48.76 3.81C49.17 4.31 49.36 5.01 49.36 5.92ZM48.54 6.58L48.03 6.58L48.03 5.92C48.03 5.12 47.85 4.70 47.63 4.51C47.39 4.31 47.10 4.31 46.91 4.31C46.70 4.31 46.44 4.31 46.20 4.51C45.96 4.70 45.78 5.12 45.78 5.92L45.78 10.36C45.78 10.96 45.89 11.40 46.10 11.66C46.20 11.82 46.41 11.98 46.91 11.98C47.42 11.98 47.61 11.82 47.73 11.66C47.94 11.40 48.03 10.96 48.03 10.36L48.03 9.69L48.54 9.69L48.54 10.36C48.54 11.77 47.99 12.47 46.91 12.47C45.84 12.47 45.29 11.77 45.29 10.36L45.29 5.92C45.29 4.51 45.84 3.81 46.91 3.81C47.99 3.81 48.54 4.51 48.54 5.92ZM50.19 2.97L50.68 2.97L50.68 12.80L54.68 12.80L54.68 13.29L50.19 13.29ZM54.68 12.46L51.02 12.46L51.02 2.97L51.51 2.97L51.51 11.97L54.68 11.97ZM60.07 10.33C60.07 11.26 59.88 11.96 59.49 12.45C59.33 12.63 59.14 12.84 58.83 12.99C58.52 13.16 58.13 13.27 57.62 13.27C56.62 13.27 56.06 12.82 55.76 12.45C55.37 11.96 55.17 11.26 55.17 10.33L55.17 5.88C55.17 4.97 55.37 4.27 55.76 3.77C56.06 3.39 56.62 2.95 57.62 2.95C58.63 2.95 59.19 3.39 59.49 3.77C59.88 4.27 60.07 4.97 60.07 5.88ZM59.58 5.88C59.58 4.30 58.91 3.44 57.62 3.44C56.34 3.44 55.66 4.30 55.66 5.88L55.66 10.33C55.66 11.91 56.35 12.78 57.62 12.78C58.90 12.78 59.58 11.91 59.58 10.33ZM59.25 10.33C59.25 11.75 58.70 12.45 57.62 12.45C56.55 12.45 56 11.75 56 10.33L56 5.88C56 5.15 56.14 4.62 56.42 4.28C56.67 3.95 57.08 3.78 57.62 3.78C58.17 3.78 58.58 3.95 58.83 4.28C59.11 4.62 59.25 5.15 59.25 5.88ZM58.76 5.88C58.76 5.08 58.58 4.66 58.34 4.47C58.10 4.27 57.81 4.27 57.62 4.27C57.41 4.27 57.15 4.27 56.91 4.47C56.67 4.66 56.49 5.08 56.49 5.88L56.49 10.33C56.49 11.16 56.67 11.55 56.91 11.75C57.15 11.94 57.41 11.96 57.62 11.96C57.81 11.96 58.10 11.94 58.34 11.75C58.58 11.55 58.76 11.16 58.76 10.33ZM64.97 2.98L65.46 2.98L65.46 10.56C65.46 11.41 65.28 12.07 64.90 12.53C64.62 12.91 64.09 13.30 63.15 13.30C62.22 13.30 61.68 12.91 61.40 12.53C61.03 12.07 60.84 11.41 60.84 10.56L60.84 2.98L61.33 2.98L61.33 10.56C61.33 12.03 61.96 12.81 63.15 12.81C63.76 12.81 64.22 12.61 64.51 12.22C64.82 11.84 64.97 11.30 64.97 10.56ZM61.67 2.98L62.16 2.98L62.16 10.56C62.16 11.27 62.31 11.63 62.52 11.80C62.73 11.98 62.97 11.98 63.15 11.98C63.34 11.98 63.57 11.98 63.78 11.80C63.99 11.63 64.15 11.27 64.15 10.56L64.15 2.98L64.64 2.98L64.64 10.56C64.64 11.89 64.16 12.47 63.15 12.47C62.16 12.47 61.67 11.89 61.67 10.56ZM71.19 10.32C71.19 12.21 70.35 13.30 68.57 13.30L66.51 13.30L66.51 12.81L68.57 12.81C69.29 12.81 69.82 12.60 70.20 12.17C70.53 11.75 70.70 11.13 70.70 10.32L70.70 5.98C70.70 4.35 70.01 3.49 68.57 3.49L66.51 3.49L66.51 2.98L68.57 2.98C69.45 2.98 70.13 3.26 70.57 3.82C70.98 4.31 71.19 5.04 71.19 5.98ZM66.51 3.81L67.00 3.81L67.00 12.47L66.51 12.47ZM67.34 12.47L67.34 3.81L68.57 3.81C69.20 3.81 69.66 3.99 69.93 4.34C70.22 4.69 70.36 5.24 70.36 5.98L70.36 10.32C70.36 11.06 70.22 11.61 69.93 11.96C69.65 12.31 69.20 12.47 68.57 12.47ZM67.83 4.31L67.83 11.98L68.57 11.98C68.91 11.98 69.23 11.96 69.47 11.73C69.69 11.51 69.86 11.09 69.86 10.32L69.86 5.98C69.86 5.21 69.69 4.79 69.47 4.56C69.23 4.34 68.91 4.31 68.57 4.31Z"></path></g><defs data-v-fde0c5aa=""><!----></defs><g data-v-fde0c5aa="" id="49b5d4ee-666b-42ce-ba01-98352168bcac" stroke="none" fill="#ffffff" transform="matrix(0.9297587543157522,0,0,0.9297587543157522,103.51206228421239,83.73492485749611)"><path d="M75 12.5c-1.184 0-2.307.189-3.442.348C67.199 5.146 59.143 0 50 0c-9.338 0-17.395 5.206-21.691 12.812-1.1-.147-2.198-.312-3.309-.312-13.781 0-25 11.212-25 25 0 13.794 11.219 25 25 25h50c13.781 0 25-11.206 25-25 0-13.788-11.219-25-25-25zM75 50H25c-6.896 0-12.5-5.609-12.5-12.5 0-6.854 6.066-12.14 12.512-12.329.025 2.948.537 5.841 1.562 8.575l11.707-4.382A12.268 12.268 0 0 1 37.5 25c0-6.891 5.604-12.5 12.5-12.5 4.041 0 7.703 2.002 9.998 5.121C53.967 22.187 50 29.357 50 37.5h12.5C62.5 30.609 68.104 25 75 25s12.5 5.609 12.5 12.5S81.896 50 75 50z"></path></g><defs data-v-fde0c5aa=""><!----></defs><g data-v-fde0c5aa="" id="b381b5b1-a323-4440-99ee-d6cdeea532c4" fill="#ffffff" transform="matrix(0.8138564066469728,0,0,0.8138564066469728,52.04424041033732,205.72563463761787)"><path d="M0.94 9.74L0.56 9.90C1.19 11.77 2.24 12.71 3.71 12.71C4.62 12.71 5.32 12.45 5.78 11.93C6.25 11.41 6.48 10.77 6.48 10.01C6.48 9.66 6.42 9.35 6.31 9.06C6.19 8.78 6.06 8.55 5.92 8.37C5.77 8.19 5.57 8.02 5.31 7.86C5.04 7.70 4.83 7.58 4.67 7.50C4.51 7.43 4.28 7.34 4.00 7.22C3.97 7.21 3.85 7.16 3.65 7.08C3.46 7.01 3.34 6.96 3.29 6.94C3.24 6.91 3.14 6.87 2.97 6.80C2.80 6.73 2.69 6.67 2.64 6.64C2.59 6.60 2.50 6.54 2.37 6.45C2.24 6.37 2.15 6.30 2.10 6.24C2.05 6.18 1.99 6.10 1.90 6.00C1.82 5.90 1.76 5.80 1.73 5.70C1.70 5.61 1.67 5.50 1.64 5.38C1.61 5.25 1.60 5.12 1.60 4.98C1.60 4.41 1.79 3.95 2.19 3.62C2.59 3.29 3.08 3.12 3.67 3.12C4.80 3.12 5.58 3.77 6.02 5.07L6.43 4.90C6.22 4.23 5.88 3.69 5.42 3.29C4.95 2.89 4.37 2.69 3.68 2.69C2.99 2.69 2.39 2.90 1.88 3.33C1.37 3.76 1.12 4.33 1.12 5.04C1.12 5.39 1.19 5.71 1.34 5.99C1.48 6.27 1.70 6.51 1.98 6.71C2.27 6.91 2.52 7.07 2.75 7.17C2.98 7.28 3.28 7.41 3.64 7.55C3.92 7.65 4.11 7.72 4.21 7.77C4.32 7.82 4.49 7.90 4.73 8.02C4.97 8.13 5.15 8.24 5.26 8.34C5.36 8.45 5.49 8.58 5.63 8.75C5.78 8.92 5.88 9.11 5.94 9.32C5.99 9.54 6.02 9.78 6.02 10.05C6.02 10.72 5.83 11.27 5.45 11.68C5.08 12.09 4.51 12.29 3.75 12.29C2.52 12.29 1.58 11.44 0.94 9.74ZM14.53 3.21L17.05 3.21L17.05 12.60L17.47 12.60L17.47 3.21L19.99 3.21L19.99 2.80L14.53 2.80ZM28.95 2.80ZM28.53 2.80L28.53 12.60L28.95 12.60L28.95 8.48L30.51 8.48L33.63 12.60L34.17 12.60L30.98 8.47C31.88 8.41 32.59 8.15 33.13 7.67C33.67 7.20 33.94 6.52 33.94 5.64C33.94 4.71 33.63 4.00 33.03 3.52C32.42 3.04 31.62 2.80 30.63 2.80ZM28.95 3.21L30.63 3.21C31.50 3.21 32.20 3.41 32.72 3.83C33.24 4.24 33.50 4.85 33.50 5.64C33.50 6.44 33.24 7.04 32.72 7.45C32.20 7.87 31.50 8.08 30.63 8.08L28.95 8.08ZM42.99 7.48L47.33 7.48L47.33 7.08L42.99 7.08L42.99 3.21L47.61 3.21L47.61 2.80L42.57 2.80L42.57 12.60L47.61 12.60L47.61 12.19L42.99 12.19ZM60.21 2.45L55.94 12.60L56.43 12.60L57.71 9.52L62.72 9.52L63.99 12.60L64.48 12.60ZM60.21 3.50L62.52 9.07L57.90 9.07ZM81.20 3.86L82.05 12.60L82.47 12.60L81.42 2.45L77.50 10.70L73.58 2.45L72.53 12.60L72.95 12.60L73.81 3.86L77.50 11.69ZM102.63 7.70C102.63 6.38 103.04 5.29 103.85 4.41C104.66 3.53 105.69 3.09 106.93 3.09C108.17 3.09 109.20 3.53 110.01 4.41C110.82 5.29 111.23 6.38 111.23 7.70C111.23 9.02 110.82 10.11 110.01 10.99C109.20 11.87 108.17 12.31 106.93 12.31C105.69 12.31 104.66 11.87 103.85 10.99C103.04 10.11 102.63 9.02 102.63 7.70ZM102.21 7.70C102.21 9.16 102.66 10.36 103.55 11.30C104.44 12.24 105.57 12.71 106.93 12.71C108.29 12.71 109.42 12.24 110.31 11.30C111.20 10.36 111.65 9.16 111.65 7.70C111.65 6.24 111.20 5.04 110.31 4.10C109.42 3.16 108.29 2.69 106.93 2.69C105.57 2.69 104.44 3.16 103.55 4.10C102.66 5.04 102.21 6.24 102.21 7.70ZM127.54 2.80L127.54 11.79L120.05 2.45L120.05 12.60L120.47 12.60L120.47 3.61L127.96 12.95L127.96 2.80ZM147.14 3.21L149.66 3.21L149.66 12.60L150.08 12.60L150.08 3.21L152.60 3.21L152.60 2.80L147.14 2.80ZM161.14 2.80L161.14 12.60L161.56 12.60L161.56 7.62L167.79 7.62L167.79 12.60L168.21 12.60L168.21 2.80L167.79 2.80L167.79 7.18L161.56 7.18L161.56 2.80ZM178.15 7.48L182.49 7.48L182.49 7.08L178.15 7.08L178.15 3.21L182.77 3.21L182.77 2.80L177.73 2.80L177.73 12.60L182.77 12.60L182.77 12.19L178.15 12.19ZM212.03 7.63L207.97 7.63L207.97 8.11L211.55 8.11C211.47 9.32 211.07 10.32 210.36 11.09C209.65 11.87 208.72 12.26 207.55 12.26C206.26 12.26 205.22 11.82 204.43 10.94C203.63 10.06 203.24 8.98 203.24 7.70C203.24 6.40 203.64 5.32 204.45 4.45C205.26 3.57 206.29 3.14 207.55 3.14C208.30 3.14 208.99 3.31 209.63 3.65C210.27 4.00 210.78 4.47 211.16 5.05L211.55 4.75C211.12 4.11 210.56 3.61 209.87 3.24C209.19 2.87 208.42 2.69 207.55 2.69C206.20 2.69 205.06 3.17 204.15 4.13C203.24 5.09 202.79 6.28 202.79 7.70C202.79 9.12 203.24 10.31 204.15 11.27C205.06 12.23 206.20 12.71 207.55 12.71C208.92 12.71 210.01 12.22 210.82 11.23C211.63 10.25 212.03 9.05 212.03 7.63ZM220.92 7.70C220.92 6.38 221.33 5.29 222.14 4.41C222.95 3.53 223.98 3.09 225.22 3.09C226.46 3.09 227.49 3.53 228.30 4.41C229.11 5.29 229.52 6.38 229.52 7.70C229.52 9.02 229.11 10.11 228.30 10.99C227.49 11.87 226.46 12.31 225.22 12.31C223.98 12.31 222.95 11.87 222.14 10.99C221.33 10.11 220.92 9.02 220.92 7.70ZM220.50 7.70C220.50 9.16 220.95 10.36 221.84 11.30C222.73 12.24 223.86 12.71 225.22 12.71C226.58 12.71 227.71 12.24 228.60 11.30C229.49 10.36 229.94 9.16 229.94 7.70C229.94 6.24 229.49 5.04 228.60 4.10C227.71 3.16 226.58 2.69 225.22 2.69C223.86 2.69 222.73 3.16 221.84 4.10C220.95 5.04 220.50 6.24 220.50 7.70ZM239.32 12.36C239.32 12.64 239.46 12.78 239.74 12.78C240.02 12.78 240.16 12.64 240.16 12.36C240.16 12.08 240.02 11.94 239.74 11.94C239.46 11.94 239.32 12.08 239.32 12.36ZM239.51 2.80L239.61 9.80L239.86 9.80L239.96 2.80Z"></path></g></svg>